<svg xmlns="http://www.w3.org/2000/svg" width="48" height="48" fill="none" viewBox="0 0 48 48">
  <defs>
    <linearGradient id="g" x1="8" y1="12" x2="40" y2="36" gradientUnits="userSpaceOnUse">
      <stop stop-color="#a5b4fc"/>
      <stop offset="0.5" stop-color="#c084fc"/>
      <stop offset="1" stop-color="#f0abfc"/>
    </linearGradient>
  </defs>
  <rect width="48" height="48" rx="12" fill="#05060a"/>
  <path d="M14 30C10.7 30 8 27.6 8 24.8C8 22 10.7 19.6 14 19.6C17.3 19.6 20 22 24 24C28 26.8 30.7 24.4 34 24.4C37.3 24.4 40 21.9 40 19.2C40 16.4 37.3 14 34 14C30.7 14 28 16.4 24 18.4C20 20.4 17.3 18 14 18C10.7 18 8 20.4 8 23.2" stroke="url(#g)" stroke-width="3" stroke-linecap="round" stroke-linejoin="round"/>
</svg>
